<svg id="visual" viewBox="0 0 900 600" width="900" height="600" xmlns="http://www.w3.org/2000/svg" xmlns:xlink="http://www.w3.org/1999/xlink" version="1.1"><rect x="0" y="0" width="900" height="600" fill="#001220"></rect><defs><linearGradient id="grad1_0" x1="33.3%" y1="0%" x2="100%" y2="100%"><stop offset="20%" stop-color="#fbae3c" stop-opacity="1"></stop><stop offset="80%" stop-color="#fbae3c" stop-opacity="1"></stop></linearGradient></defs><defs><linearGradient id="grad1_1" x1="33.3%" y1="0%" x2="100%" y2="100%"><stop offset="20%" stop-color="#fbae3c" stop-opacity="1"></stop><stop offset="80%" stop-color="#cc5867" stop-opacity="1"></stop></linearGradient></defs><defs><linearGradient id="grad1_2" x1="33.3%" y1="0%" x2="100%" y2="100%"><stop offset="20%" stop-color="#593762" stop-opacity="1"></stop><stop offset="80%" stop-color="#cc5867" stop-opacity="1"></stop></linearGradient></defs><defs><linearGradient id="grad1_3" x1="33.3%" y1="0%" x2="100%" y2="100%"><stop offset="20%" stop-color="#593762" stop-opacity="1"></stop><stop offset="80%" stop-color="#001220" stop-opacity="1"></stop></linearGradient></defs><defs><linearGradient id="grad2_0" x1="0%" y1="0%" x2="66.7%" y2="100%"><stop offset="20%" stop-color="#fbae3c" stop-opacity="1"></stop><stop offset="80%" stop-color="#fbae3c" stop-opacity="1"></stop></linearGradient></defs><defs><linearGradient id="grad2_1" x1="0%" y1="0%" x2="66.7%" y2="100%"><stop offset="20%" stop-color="#cc5867" stop-opacity="1"></stop><stop offset="80%" stop-color="#fbae3c" stop-opacity="1"></stop></linearGradient></defs><defs><linearGradient id="grad2_2" x1="0%" y1="0%" x2="66.7%" y2="100%"><stop offset="20%" stop-color="#cc5867" stop-opacity="1"></stop><stop offset="80%" stop-color="#593762" stop-opacity="1"></stop></linearGradient></defs><defs><linearGradient id="grad2_3" x1="0%" y1="0%" x2="66.7%" y2="100%"><stop offset="20%" stop-color="#001220" stop-opacity="1"></stop><stop offset="80%" stop-color="#593762" stop-opacity="1"></stop></linearGradient></defs><g transform="translate(900, 0)"><path d="M0 297.5C-30.3 290.8 -60.6 284.1 -89 273.9C-117.4 263.7 -143.8 250 -169.9 233.8C-196 217.6 -221.8 199 -240.6 174.8C-259.5 150.7 -271.3 120.9 -279.6 90.9C-287.9 60.8 -292.7 30.4 -297.5 0L0 0Z" fill="#232745"></path><path d="M0 223.1C-22.7 218.1 -45.5 213.1 -66.7 205.4C-88 197.8 -107.8 187.5 -127.4 175.4C-147 163.2 -166.4 149.3 -180.5 131.1C-194.6 113 -203.5 90.7 -209.7 68.1C-215.9 45.6 -219.5 22.8 -223.1 0L0 0Z" fill="#96446e"></path><path d="M0 148.7C-15.2 145.4 -30.3 142.1 -44.5 137C-58.7 131.9 -71.9 125 -84.9 116.9C-98 108.8 -110.9 99.5 -120.3 87.4C-129.7 75.3 -135.7 60.5 -139.8 45.4C-144 30.4 -146.3 15.2 -148.7 0L0 0Z" fill="#f17c53"></path><path d="M0 74.4C-7.6 72.7 -15.2 71 -22.2 68.5C-29.3 65.9 -35.9 62.5 -42.5 58.5C-49 54.4 -55.5 49.8 -60.2 43.7C-64.9 37.7 -67.8 30.2 -69.9 22.7C-72 15.2 -73.2 7.6 -74.4 0L0 0Z" fill="#fbae3c"></path></g><g transform="translate(0, 600)"><path d="M0 -297.5C29.9 -291.1 59.7 -284.8 89.9 -276.8C120.1 -268.7 150.6 -258.8 174.8 -240.6C199.1 -222.5 217 -195.9 233.8 -169.9C250.6 -143.8 266.3 -118.2 276.8 -89.9C287.2 -61.7 292.3 -30.8 297.5 0L0 0Z" fill="#232745"></path><path d="M0 -223.1C22.4 -218.4 44.8 -213.6 67.4 -207.6C90.1 -201.5 113 -194.1 131.1 -180.5C149.3 -166.8 162.7 -147 175.4 -127.4C188 -107.8 199.8 -88.6 207.6 -67.4C215.4 -46.3 219.2 -23.1 223.1 0L0 0Z" fill="#96446e"></path><path d="M0 -148.7C14.9 -145.6 29.9 -142.4 45 -138.4C60.1 -134.3 75.3 -129.4 87.4 -120.3C99.5 -111.2 108.5 -98 116.9 -84.9C125.3 -71.9 133.2 -59.1 138.4 -45C143.6 -30.8 146.2 -15.4 148.7 0L0 0Z" fill="#f17c53"></path><path d="M0 -74.4C7.5 -72.8 14.9 -71.2 22.5 -69.2C30 -67.2 37.7 -64.7 43.7 -60.2C49.8 -55.6 54.2 -49 58.5 -42.5C62.7 -35.9 66.6 -29.5 69.2 -22.5C71.8 -15.4 73.1 -7.7 74.4 0L0 0Z" fill="#fbae3c"></path></g></svg>